<?xml version="1.0" encoding="utf-8"?>
<!-- Generator: Adobe Illustrator 23.1.0, SVG Export Plug-In . SVG Version: 6.00 Build 0)  -->
<svg version="1.1" id="Layer_1" xmlns="http://www.w3.org/2000/svg" xmlns:xlink="http://www.w3.org/1999/xlink" x="0px" y="0px"
	 viewBox="0 0 1000 1000" style="enable-background:new 0 0 1000 1000;" xml:space="preserve">
<polygon points="679.56,260.54 679.56,438.88 285.36,44.67 285.36,94.3 679.56,488.51 679.56,654.64 510.33,485.41 510.33,485.42 
	489.68,464.77 285.36,260.45 285.36,296.75 285.36,309.69 285.36,526.01 285.35,526.02 285.36,526.03 285.36,738.89 320.45,738.89 
	320.45,561.12 714.65,955.33 714.65,905.67 320.45,511.46 320.45,344.79 489.68,514.02 489.68,514.01 714.65,738.98 714.65,738.97 
	714.65,738.98 714.65,702.68 714.65,689.73 714.65,260.54 "/>
</svg>
